<svg width="80" height="80" viewBox="0 0 80 80" fill="none" xmlns="http://www.w3.org/2000/svg">
<path d="M64 0C72.8366 0 80 7.16344 80 16V64C80 72.8366 72.8366 80 64 80H16C7.16344 80 0 72.8366 0 64V16C0 7.16344 7.16344 0 16 0H64Z" fill="#2563EB"/>
<g clip-path="url(#clip0_8_8)">
<path d="M37.6562 24.75H35.3125C33.7598 24.75 32.5 26.0098 32.5 27.5625V34.125C32.5 36.1934 34.1816 37.875 36.25 37.875H43.75C45.8184 37.875 47.5 36.1934 47.5 34.125V27.5625C47.5 26.0098 46.2402 24.75 44.6875 24.75H42.3438V29.4375C42.3438 29.9531 41.9219 30.375 41.4062 30.375H38.5938C38.0781 30.375 37.6562 29.9531 37.6562 29.4375V24.75ZM26.875 39.75C24.8066 39.75 23.125 41.4316 23.125 43.5V51C23.125 53.0684 24.8066 54.75 26.875 54.75H36.25C38.3184 54.75 40 53.0684 40 51V43.5C40 41.4316 38.3184 39.75 36.25 39.75H33.9062V44.4375C33.9062 44.9531 33.4844 45.375 32.9688 45.375H30.1562C29.6406 45.375 29.2188 44.9531 29.2188 44.4375V39.75H26.875ZM43.75 54.75H53.125C55.1934 54.75 56.875 53.0684 56.875 51V43.5C56.875 41.4316 55.1934 39.75 53.125 39.75H50.7812V44.4375C50.7812 44.9531 50.3594 45.375 49.8438 45.375H47.0312C46.5156 45.375 46.0938 44.9531 46.0938 44.4375V39.75H43.75C42.8711 39.75 42.0625 40.0488 41.4238 40.5586C41.7109 41.168 41.875 41.8477 41.875 42.5625V51.9375C41.875 52.6523 41.7109 53.332 41.4238 53.9414C42.0625 54.4512 42.8711 54.75 43.75 54.75Z" fill="white"/>
</g>
<defs>
<clipPath id="clip0_8_8">
<path d="M23.125 24.75H56.875V54.75H23.125V24.75Z" fill="white"/>
</clipPath>
</defs>
</svg>
